# xmcd
#
# Track frame offsets: 
#        150
#        5692
#        13845
#        27018
#        37917
#        67623
#        89084
#        101616
#
# Disc length: 1466 seconds
#
# Revision: 0
# Processed by: cddbd v1.4PL0 Copyright (c) Steve Scherf et al.
# Submitted via: ExactAudioCopy v0.90b4
#
DISCID=5605b808
DTITLE=Jeff Foxworthy - The Original
DYEAR=1900
DGENRE=Comedy
TTITLE0=Back In The South
TTITLE1=Southern Words
TTITLE2=You Might Be A Redneck
TTITLE3=Mothers Against Drunk Driving
TTITLE4=Towing Dad's Boat
TTITLE5=Throwing A Party
TTITLE6=You Might Be A Redneck
TTITLE7=The Wedding Reception
EXTD=
EXTT0=
EXTT1=
EXTT2=
EXTT3=
EXTT4=
EXTT5=
EXTT6=
EXTT7=
PLAYORDER=
